<?xml version="1.0" encoding="UTF-8" standalone="no"?>
<svg
   xmlns:dc="http://purl.org/dc/elements/1.1/"
   xmlns:cc="http://creativecommons.org/ns#"
   xmlns:rdf="http://www.w3.org/1999/02/22-rdf-syntax-ns#"
   xmlns:svg="http://www.w3.org/2000/svg"
   xmlns="http://www.w3.org/2000/svg"
   xmlns:sodipodi="http://sodipodi.sourceforge.net/DTD/sodipodi-0.dtd"
   xmlns:inkscape="http://www.inkscape.org/namespaces/inkscape"
   version="1.1"
   width="128"
   height="128"
   id="svg2"
   inkscape:version="0.48.2 r9819"
   sodipodi:docname="Extraterrestrial-life-and-ufology.svg">
  <metadata
     id="metadata34">
    <rdf:RDF>
      <cc:Work
         rdf:about="">
        <dc:format>image/svg+xml</dc:format>
        <dc:type
           rdf:resource="http://purl.org/dc/dcmitype/StillImage" />
        <dc:title>Crystal Clear action bookmark</dc:title>
      </cc:Work>
    </rdf:RDF>
  </metadata>
  <defs
     id="defs32" />
  <sodipodi:namedview
     pagecolor="#ffffff"
     bordercolor="#666666"
     borderopacity="1"
     objecttolerance="10"
     gridtolerance="10"
     guidetolerance="10"
     inkscape:pageopacity="0"
     inkscape:pageshadow="2"
     inkscape:window-width="1905"
     inkscape:window-height="1003"
     id="namedview30"
     showgrid="false"
     inkscape:zoom="0.35355339"
     inkscape:cx="-806.61199"
     inkscape:cy="399.41376"
     inkscape:window-x="0"
     inkscape:window-y="0"
     inkscape:window-maximized="0"
     inkscape:current-layer="svg2" />
  <title
     id="title4">Crystal Clear action bookmark</title>
  <filter
     id="f1">
    <feGaussianBlur
       id="fgb1"
       stdDeviation="4.2510011" />
  </filter>
  <radialGradient
     id="rg1"
     cx="3272.0874"
     cy="5380.6934"
     r="435.3177"
     gradientTransform="matrix(0.1481,0,0,0.1412,-488.748,-362.8818)"
     gradientUnits="userSpaceOnUse">
    <stop
       offset="0"
       style="stop-color:#ff901f"
       id="stop9" />
    <stop
       offset="1"
       style="stop-color:#ffb61f"
       id="stop11" />
  </radialGradient>
  <radialGradient
     id="rg2"
     cx="3844.8518"
     cy="443.1116"
     r="366.0851"
     gradientTransform="matrix(0.1446,0.1263,-1.2282,1.4069,-78.3734,-769.5161)"
     gradientUnits="userSpaceOnUse">
    <stop
       offset="0"
       style="stop-color:#fff"
       id="stop14" />
    <stop
       offset="1"
       style="stop-color:#fff;stop-opacity:0"
       id="stop16" />
  </radialGradient>
  <g
     transform="matrix(0.3900793,0,0,0.3900793,44.192324,-109.44647)"
     id="g18">
    <g
       style="filter:url(#f1)"
       id="g20">
      <polygon
         style="fill:#999999"
         points="-65.046,413.821 -54.485,372.701 -87.696,345.61 -44.824,343.532 -29.822,302.989 -13.179,343.975 28.595,344.86 -4.891,372.435 6.826,413.357 -29.222,389.206 "
         id="polygon22" />
    </g>
    <path
       style="fill:#ffcc75;stroke:#ba6100;stroke-width:1.5;stroke-linejoin:round"
       d="m 6.254,410.113 -36.048,-24.149 -35.824,24.613 10.56,-41.12 -33.211,-27.091 42.872,-2.077 15.002,-40.543 16.643,40.986 41.776,0.885 -33.488,27.575 11.718,40.921 z"
       id="path24"
       inkscape:connector-curvature="0" />
    <path
       style="fill:url(#rg1)"
       d="m 4.316,407.421 -34.205,-24.852 -33.177,24.811 9.638,-38.431 -30.903,-25.61 40.161,-1.807 13.702,-38.342 15.713,39.065 39.605,0.38 -33.98,25.104 13.446,39.682 z"
       id="path26"
       inkscape:connector-curvature="0" />
    <path
       style="fill:url(#rg2)"
       d="m -59.084,391.597 5.656,-22.648 -30.808,-25.322 40.065,-2.025 13.677,-38.33 15.805,38.986 22.982,0.255 c -35.743,8.884 -46.555,13.59 -67.377,49.084 z"
       id="path28"
       inkscape:connector-curvature="0" />
  </g>
  <g
     id="g3133"
     transform="matrix(-0.51427676,0,0,0.51427676,129.14466,71.76122)">
    <path
       id="path3073"
       d="m 77.328,5.944 c 0,0 29.686,8.023 25.555,36.66 0,0 13.48,3.784 19.847,31.807 l -11.263,-1.395 -3.799,3.657 -11.723,0.035 -1.077,0.494 c 0,0 -43.134,1.896 -73.147,-20.683 l -1.734,-2.262 c 0,0 -5.414,-4 -5.95,-4.916 l -0.271,-2.914 c 0,0 -4.994,-3.632 -8.64,-8.462 0,0 18.46,-19.203 34.78,-14.417 -10e-4,0 9.008,-25.552 37.422,-17.604 z"
       inkscape:connector-curvature="0"
       style="stroke:#000000;stroke-width:0.75" />
    <path
       id="path3075"
       d="M 91.119,98.445"
       inkscape:connector-curvature="0"
       style="fill:#afaaff" />
    <path
       id="path3077"
       d="m 77.863,6.86 c 0,0 19.591,5.124 23.617,25.299 0,0 -21.597,-10.3 -55.48,-17.096 0,0 11.915,-13.938 31.863,-8.203 z"
       inkscape:connector-curvature="0"
       style="fill:#afaaff" />
    <path
       id="path3079"
       d="m 47.883,14.781 c 0,0 11.702,-11.152 29.307,-7.322 0,0 19.274,6.333 23.092,23.354 0,-10e-4 -24.897,-13.49 -52.399,-16.032 z"
       inkscape:connector-curvature="0"
       style="fill:#9292de" />
    <path
       id="path3081"
       d="m 73.637,9.833 c 0,0 -10.878,-2.753 -18.212,1.221 0,0 -3.503,1.8 0.868,3.181 4.371,1.381 17.423,4.572 18.534,4.043 0,0 -13.607,-4.179 -13.57,-4.985 0,0 1.16,-1.396 2.476,-1.695 0,0 8.733,-2.189 9.904,-1.765 z"
       inkscape:connector-curvature="0"
       style="fill:#bbbcf1" />
    <path
       id="path3083"
       d="m 46.871,18.651 -2.791,5.73 c 0,0 3.334,0.097 10.463,2.479 0,0 1.57,-5.016 2.065,-5.92 0,-0.001 -7.612,-2.509 -9.737,-2.289 z"
       inkscape:connector-curvature="0"
       style="fill:#deefff" />
    <polygon
       id="polygon3085"
       points="83.314,35.418 83.991,28.877 73.654,25.915 72.557,32.087 "
       style="fill:#a9d5ff" />
    <polygon
       id="polygon3087"
       points="96.557,33.197 96.49,39.381 86.332,36.725 87.072,29.941 "
       style="fill:#a9d5ff" />
    <polygon
       id="polygon3089"
       points="70.574,24.851 69.297,30.718 56.415,27.607 58.48,21.688 "
       style="fill:#98cdff" />
    <path
       id="path3091"
       d="m 13.635,36.057 2.168,12.454 7.747,6.936 c 0,0 33.24,-6.552 70.676,19.261 l 12.484,0.681 8.462,-8.64 c 0,0.001 -47.375,-26.345 -101.537,-30.692 z"
       inkscape:connector-curvature="0"
       style="fill:#45454a" />
    <path
       id="path3093"
       d="M 88.125,72.414 C 79.152,67.885 51.661,58.157 22.298,55.084 l -2.89,-3.563 c 0,0 -4.793,-2.752 1.99,-2.077 6.784,0.674 53.788,8.215 82.102,25.44 0,0 -3.323,0.886 -8.856,0.268 -0.905,-0.101 -3.146,-1.036 -6.519,-2.738 z"
       inkscape:connector-curvature="0"
       style="fill:#929394" />
    <path
       id="path3095"
       d="m 99.042,61.239 -6.378,6.601 -1.767,0.83 -7.174,1.741 c 0,0 8.391,3.487 10.441,4.54 l 11.695,0.733 11.155,-11.036 -17.972,-3.409 z"
       inkscape:connector-curvature="0"
       style="opacity:0.83999999;fill:#7b7b7b" />
    <g
       id="g3097">
	<path
   id="path3099"
   d="m 7.633,39.242 c 0,0 63.153,9.875 112.77,33.527 0,0 -3.731,-19.176 -13.529,-27.312 0,0 -29.75,-11.399 -66.237,-21.023 0,0 -4.517,-2.42 -16.812,2.104 0,0 -7.781,4.378 -16.192,12.704 z"
   inkscape:connector-curvature="0"
   style="fill:#bbbcf1" />

	<g
   id="g3101">
		<path
   id="path3103"
   d="m 10.672,38.338 c 0,0 13.708,-11.402 18.706,-12.089 3.04,-0.418 4.886,-2.119 12.697,0.167 6.263,1.833 56.359,16.185 64.217,20.435 7.813,4.228 13.312,21.193 13.672,22.742 C 120.514,71.971 97.117,52.7 10.672,38.338 z"
   inkscape:connector-curvature="0"
   style="fill:#9292de" />

		<path
   id="path3105"
   d="m 19.531,32.695 c 0,0 9.471,-6.984 34.274,-0.497 0,0 22.06,5.285 22.954,5.761 0.895,0.477 -29.277,-9.84 -38.636,-11.076 -9.36,-1.235 -17.698,5.318 -18.592,5.812 z"
   inkscape:connector-curvature="0"
   style="fill:#bbbcf1" />

	</g>

	<path
   id="path3107"
   d="m 103.079,45.333 c 0,0 3.33,8.924 3.943,18.692 0,0 7.005,3.554 10.984,6.05 4.223,2.651 -5.871,-19.597 -9.887,-22.36 0.001,0 -0.479,-1.31 -5.04,-2.382 z"
   inkscape:connector-curvature="0"
   style="fill:#6562cc" />

	<path
   id="path3109"
   d="m 70.037,33.487 c -2.429,9.288 -4.395,16.804 -4.395,16.804"
   inkscape:connector-curvature="0"
   style="fill:none;stroke:#bbbcf1" />

	<path
   id="path3111"
   d="M 53.224,29.575 C 50.795,38.863 43.67,45.838 37.343,44.183"
   inkscape:connector-curvature="0"
   style="fill:none;stroke:#bbbcf1" />

	<path
   id="path3113"
   d="m 89.713,40.09 c -2.626,10.04 1.436,19.783 9.082,21.783"
   inkscape:connector-curvature="0"
   style="fill:none;stroke:#bbbcf1" />

	<path
   id="path3115"
   d="m 115.546,58.406 c 0.492,-1.88 -11.984,2.773 -4.707,8.073"
   inkscape:connector-curvature="0"
   style="fill:none;stroke:#bbbcf1" />

	<path
   id="path3117"
   d="m 18.771,30.753 c 6.442,4.596 8.352,7.037 8.833,11.043"
   inkscape:connector-curvature="0"
   style="fill:none;stroke:#bbbcf1" />

</g>
    <ellipse
       id="ellipse3119"
       ry="3.5"
       rx="36.666"
       cy="65.345001"
       cx="58.431"
       transform="matrix(0.9639,0.2662,-0.2662,0.9639,19.5003,-13.195)"
       sodipodi:cx="58.431"
       sodipodi:cy="65.345001"
       sodipodi:rx="36.666"
       sodipodi:ry="3.5"
       style="fill:#ff3c00"
       d="m 95.097,65.345001 c 0,1.932997 -16.415927,3.5 -36.666,3.5 -20.250073,0 -36.666001,-1.567003 -36.666001,-3.5 0,-1.932996 16.415928,-3.5 36.666001,-3.5 20.250073,0 36.666,1.567004 36.666,3.5 z" />
    <ellipse
       id="ellipse3121"
       ry="2.757"
       rx="33.994999"
       cy="66.142998"
       cx="59.171001"
       transform="matrix(0.9625,0.2712,-0.2712,0.9625,20.1559,-13.5686)"
       sodipodi:cx="59.171001"
       sodipodi:cy="66.142998"
       sodipodi:rx="33.994999"
       sodipodi:ry="2.757"
       style="fill:#ff8307"
       d="m 93.166,66.142998 c 0,1.522649 -15.220079,2.757 -33.994999,2.757 -18.774919,0 -33.994998,-1.234351 -33.994998,-2.757 0,-1.522649 15.220079,-2.757 33.994998,-2.757 18.77492,0 33.994999,1.234351 33.994999,2.757 z" />
    <ellipse
       id="ellipse3123"
       ry="2.75"
       rx="28.334"
       cy="64.684998"
       cx="53.605"
       transform="matrix(0.9662,0.2577,-0.2577,0.9662,18.4761,-11.6276)"
       sodipodi:cx="53.605"
       sodipodi:cy="64.684998"
       sodipodi:rx="28.334"
       sodipodi:ry="2.75"
       style="fill:#ffee2e"
       d="m 81.938999,64.684998 c 0,1.518783 -12.685564,2.75 -28.333999,2.75 -15.648436,0 -28.334,-1.231217 -28.334,-2.75 0,-1.518784 12.685564,-2.75 28.334,-2.75 15.648435,0 28.333999,1.231216 28.333999,2.75 z" />
    <path
       id="path3125"
       d="M 34.356,59.91 12.913,83.933 c 0,0 34.632,19.739 68.962,18.898 L 80.709,72.378 c 0,0 -22.884,-3.401 -46.353,-12.468 z"
       inkscape:connector-curvature="0"
       style="opacity:0.82999998;fill:#b9a956" />
  </g>
  <g
     id="g3670"
     transform="matrix(0.5997234,0,0,0.5997234,-27.366027,-8.5463456)">
    <path
       d="m 110.792,199.203 c 0.786,-1.094 0.536,-2.618 -0.56,-3.402 L 71.33,167.879 c -1.094,-0.786 -2.619,-0.535 -3.402,0.561 l 0,0 c -0.787,1.094 -0.536,2.618 0.561,3.402 l 38.903,27.922 c 1.091,0.784 2.615,0.534 3.4,-0.561 l 0,0 z"
       id="path5393"
       inkscape:connector-curvature="0"
       style="fill:#f16032;stroke:#010101;stroke-width:0.31" />
    <path
       d="m 104.933,182.338 c 0.979,-0.921 1.069,-2.423 0.196,-3.351 L 74.096,146.014 c -0.872,-0.928 -2.376,-0.933 -3.357,-0.006 l 0,0 c -0.979,0.922 -1.069,2.423 -0.196,3.351 l 31.032,32.973 c 0.874,0.927 2.376,0.93 3.358,0.006 l 0,0 z"
       id="path5395"
       inkscape:connector-curvature="0"
       style="fill:#f16032;stroke:#010101;stroke-width:0.30149999" />
    <path
       d="m 195.802,99.639 c 0.951,-0.952 0.953,-2.499 0,-3.451 l -33.859,-33.86 c -0.952,-0.951 -2.498,-0.95 -3.451,0.002 l 0,0 c -0.951,0.951 -0.951,2.497 0,3.448 l 33.861,33.86 c 0.951,0.952 2.496,0.954 3.449,10e-4 l 0,0 z"
       id="path5397"
       inkscape:connector-curvature="0"
       style="fill:#f16032;stroke:#010101;stroke-width:0.31" />
    <path
       d="m 193.854,116.922 c 0.981,-0.922 1.057,-2.437 0.167,-3.38 L 162.452,79.996 c -0.888,-0.945 -2.403,-0.962 -3.386,-0.038 l 0,0 c -0.98,0.921 -1.057,2.438 -0.168,3.379 l 31.572,33.549 c 0.889,0.942 2.403,0.958 3.384,0.036 l 0,0 z"
       id="path5399"
       inkscape:connector-curvature="0"
       style="fill:#f16032;stroke:#010101;stroke-width:0.30410001" />
    <path
       d="m 176.894,119.397 c 1.133,-0.729 1.671,-1.912 1.201,-2.642 L 161.394,90.776 c -0.472,-0.729 -1.771,-0.731 -2.902,-0.005 l 0,0 c -1.135,0.727 -1.672,1.912 -1.203,2.642 l 16.703,25.98 c 0.468,0.73 1.769,0.732 2.902,0.004 l 0,0 z"
       id="path5401"
       inkscape:connector-curvature="0"
       style="fill:#f16032;stroke:#010101;stroke-width:0.249" />
    <path
       d="m 166.174,140.867 c 0.95,-0.951 1.028,-2.421 0.166,-3.283 l -30.588,-30.588 c -0.86,-0.86 -2.333,-0.785 -3.283,0.166 l 0,0 c -0.953,0.952 -1.027,2.422 -0.167,3.283 l 30.587,30.588 c 0.862,0.861 2.331,0.787 3.285,-0.166 l 0,0 z"
       id="path5403"
       inkscape:connector-curvature="0"
       style="fill:#f16032;stroke:#010101;stroke-width:0.2947" />
    <path
       d="m 100.187,159.734 c 1.152,-0.701 1.767,-1.785 1.378,-2.432 L 87.679,134.423 c -0.392,-0.646 -1.64,-0.6 -2.792,0.099 l 0,0 c -1.152,0.7 -1.767,1.788 -1.378,2.432 l 13.887,22.88 c 0.388,0.645 1.639,0.6 2.791,-0.1 l 0,0 z"
       id="path5405"
       inkscape:connector-curvature="0"
       style="fill:#f16032;stroke:#010101;stroke-width:0.2318" />
    <path
       d="m 231.701,47.122 c -5.037,2.587 -45.461,-10.659 -45.461,-10.659 0,0 10.346,34.801 12.541,44.521 2.195,9.72 2.195,24.142 2.195,24.142 -0.314,6.584 -2.822,8.465 -7.839,14.108 -5.017,5.643 -11.601,4.703 -14.735,4.076 -3.134,-0.627 -37.624,-8.779 -47.97,-11.601 -10.346,-2.821 -21.633,-0.313 -25.709,2.508 -4.076,2.821 -6.271,10.66 -6.271,10.66 -5.329,22.888 17.244,68.975 17.244,68.975 -1.882,5.017 -8.151,10.034 -8.151,10.034 0,0 -23.514,-61.451 -13.795,-80.576 9.72,-19.125 25.709,-18.811 32.607,-18.812 6.899,10e-4 50.478,12.855 57.688,12.541 7.213,-0.313 11.914,3.135 8.152,-17.558 -3.762,-20.693 -12.541,-48.283 -13.48,-54.867 -0.941,-6.583 2.821,-10.346 2.821,-10.346 0,0 4.702,-5.955 10.659,-5.017 5.957,0.94 31.666,10.032 40.758,13.796 1.75,0.724 0.431,3.21 -1.254,4.075 z"
       id="path5407"
       inkscape:connector-curvature="0"
       style="fill:#2e3192;stroke:#b0e0e6;stroke-width:0.31" />
    <path
       d="m 247.691,62.485 c -20.379,12.228 -35.43,6.584 -43.58,5.957 -8.152,-0.628 -33.233,-11.914 -39.191,-12.854 -5.957,-0.94 -10.659,5.017 -10.659,5.017 0,0 -3.762,3.762 -2.822,10.346 0.941,6.584 9.719,34.174 13.481,54.866 3.763,20.693 -0.939,17.245 -8.152,17.559 -7.21,0.313 -50.79,-12.541 -57.688,-12.541 -6.897,0.001 -22.888,-0.313 -32.606,18.812 -9.72,19.124 2.508,54.554 2.508,54.554 0,0 16.931,14.422 15.363,9.092 0,0 -18.498,-39.19 -13.168,-62.078 0,0 2.195,-7.838 6.271,-10.659 4.076,-2.822 15.363,-5.33 25.709,-2.509 10.347,2.822 44.835,10.974 47.97,11.601 3.135,0.628 9.719,1.567 14.735,-4.076 5.016,-5.644 7.524,-7.524 7.838,-14.108 0,0 -10e-4,-14.423 -2.195,-24.142 -2.194,-9.719 -12.541,-44.521 -12.541,-44.521 0,0 38.026,12.381 42.014,12.541 7.838,0.313 22.572,4.389 34.487,-2.508 11.911,-6.9 12.226,-10.349 12.226,-10.349 z"
       id="path5409"
       inkscape:connector-curvature="0"
       style="fill:#2e3192;stroke:#b0e0e6;stroke-width:0.31" />
    <path
       d="m 144.07,146.353 c 0.951,-0.95 0.972,-2.477 0.044,-3.404 l -33.007,-33.007 c -0.93,-0.931 -2.455,-0.908 -3.406,0.043 l 0,0 c -0.953,0.952 -0.971,2.478 -0.043,3.406 l 33.007,33.007 c 0.929,0.927 2.452,0.908 3.405,-0.045 l 0,0 z"
       id="path5411"
       inkscape:connector-curvature="0"
       style="fill:#f16032;stroke:#010101;stroke-width:0.30610001" />
    <path
       d="m 158.492,147.606 c 0.951,-0.95 0.881,-2.567 -0.158,-3.607 l -36.991,-36.991 c -1.04,-1.039 -2.658,-1.11 -3.609,-0.16 l 0,0 c -0.952,0.953 -0.881,2.568 0.16,3.609 l 36.991,36.99 c 1.038,1.04 2.654,1.114 3.607,0.159 l 0,0 z"
       id="path5413"
       inkscape:connector-curvature="0"
       style="fill:#f16032;stroke:#010101;stroke-width:0.324" />
    <path
       d="m 124.391,141.251 c 0.865,-1.034 1.03,-2.322 0.36,-2.879 L 101.1,118.521 c -0.664,-0.56 -1.907,-0.176 -2.771,0.856 l 0,0 c -0.867,1.033 -1.029,2.322 -0.363,2.879 l 23.652,19.851 c 0.666,0.559 1.907,0.176 2.773,-0.856 l 0,0 z"
       id="path5415"
       inkscape:connector-curvature="0"
       style="fill:#f16032;stroke:#010101;stroke-width:0.249" />
    <path
       d="m 232.798,72.36 c 0.951,-0.951 0.952,-2.496 0,-3.448 l -33.86,-33.86 c -0.952,-0.952 -2.497,-0.952 -3.45,-10e-4 l 0,0 c -0.951,0.952 -0.951,2.498 0.001,3.45 l 33.86,33.86 c 0.952,0.952 2.496,0.953 3.449,-0.001 l 0,0 z"
       id="path5417"
       inkscape:connector-curvature="0"
       style="fill:#f16032;stroke:#010101;stroke-width:0.31" />
    <path
       d="m 213.923,74.26 c 1.064,-0.828 1.313,-2.283 0.558,-3.258 l -26.87,-34.57 c -0.756,-0.972 -2.23,-1.09 -3.295,-0.263 l 0,0 c -1.064,0.827 -1.313,2.285 -0.558,3.257 l 26.87,34.571 c 0.756,0.972 2.231,1.09 3.295,0.263 l 0,0 z"
       id="path5419"
       inkscape:connector-curvature="0"
       style="fill:#f16032;stroke:#010101;stroke-width:0.29640001" />
  </g>
</svg>
